# xmcd
#
# Track frame offsets:
#	150
#	4498
#	8682
#	14193
#	21188
#	26419
#	26884
#	30828
#
# Disc length: 519 seconds
#
# Revision: 0
# Processed by: cddbd v1.4PL0 Copyright (c) Steve Scherf et al.
# Submitted via: dBpowerAMP V4.0
#
DISCID=55020508
DTITLE=tHaNaToLoGy - NeCrOtIKo ReCoNoCiMiEnTo, ExPrEcIoN dE Un MeNo
DYEAR=1900
DGENRE=
TTITLE0=NOSE
TTITLE1=NOSE1
TTITLE2=NOSE3
TTITLE3=SDF
TTITLE4=SDFF
TTITLE5=FFF
TTITLE6=666
TTITLE7=FDSF
EXTD=THanaTOloGY...NECROTIKO RECONOCIMIENTO, EXPRECION DE UN MENOR!!
EXTT0=
EXTT1=
EXTT2=
EXTT3=
EXTT4=
EXTT5=
EXTT6=
EXTT7=
PLAYORDER=
